<svg width="800" height="1200" viewBox="0 0 800 1200" fill="none" xmlns="http://www.w3.org/2000/svg">
  <rect width="800" height="1200" rx="12" fill="#0D1117"/>
  <rect x="0.5" y="0.5" width="799" height="1199" rx="11.5" stroke="#30363D"/>

  <circle cx="25" cy="25" r="6" fill="#FF5F56"/>
  <circle cx="45" cy="25" r="6" fill="#FFBD2E"/>
  <circle cx="65" cy="25" r="6" fill="#27C93F"/>
  <text x="400" y="28" font-family="monospace" font-size="12" fill="#8B949E" text-anchor="middle">nefro@darksec - bash</text>

  <g transform="translate(40, 60)" stroke-width="2" stroke-linecap="square">
    
    <g id="N">
      <rect x="0" y="10" width="15" height="15" fill="#3FB950" />
      <rect x="0" y="30" width="15" height="15" fill="#3FB950" />
      <rect x="0" y="50" width="15" height="15" fill="#3FB950" />
      <rect x="20" y="10" width="15" height="15" fill="#3FB950" />
      <rect x="40" y="10" width="15" height="15" fill="#3FB950" />
      <rect x="40" y="30" width="15" height="15" fill="#3FB950" />
      <rect x="40" y="50" width="15" height="15" fill="#3FB950" />
      <path d="M7 25 v5" stroke="#2D723B" fill="none"/>
      <path d="M7 45 v5" stroke="#2D723B" fill="none"/>
      <path d="M15 17 h5" stroke="#2D723B" fill="none"/>
      <path d="M35 17 h5" stroke="#2D723B" fill="none"/>
      <path d="M47 25 v5" stroke="#2D723B" fill="none"/>
      <path d="M47 45 v5" stroke="#2D723B" fill="none"/>
    </g>

    <g transform="translate(70, 0)" id="E">
      <rect x="0" y="10" width="15" height="15" fill="#3FB950" />
      <rect x="0" y="30" width="15" height="15" fill="#3FB950" />
      <rect x="0" y="50" width="15" height="15" fill="#3FB950" />
      <rect x="20" y="10" width="15" height="15" fill="#3FB950" />
      <rect x="40" y="10" width="15" height="15" fill="#3FB950" />
      <rect x="20" y="30" width="15" height="15" fill="#3FB950" />
      <rect x="20" y="50" width="15" height="15" fill="#3FB950" />
      <rect x="40" y="50" width="15" height="15" fill="#3FB950" />
      <path d="M7 25 v5" stroke="#2D723B" fill="none"/>
      <path d="M7 45 v5" stroke="#2D723B" fill="none"/>
      <path d="M15 17 h5" stroke="#2D723B" fill="none"/>
      <path d="M35 17 h5" stroke="#2D723B" fill="none"/>
      <path d="M15 37 h5" stroke="#2D723B" fill="none"/>
      <path d="M15 57 h5" stroke="#2D723B" fill="none"/>
      <path d="M35 57 h5" stroke="#2D723B" fill="none"/>
    </g>

    <g transform="translate(140, 0)" id="F">
      <rect x="0" y="10" width="15" height="15" fill="#3FB950" />
      <rect x="0" y="30" width="15" height="15" fill="#3FB950" />
      <rect x="0" y="50" width="15" height="15" fill="#3FB950" />
      <rect x="20" y="10" width="15" height="15" fill="#3FB950" />
      <rect x="40" y="10" width="15" height="15" fill="#3FB950" />
      <rect x="20" y="30" width="15" height="15" fill="#3FB950" />
      <path d="M7 25 v5" stroke="#2D723B" fill="none"/>
      <path d="M7 45 v5" stroke="#2D723B" fill="none"/>
      <path d="M15 17 h5" stroke="#2D723B" fill="none"/>
      <path d="M35 17 h5" stroke="#2D723B" fill="none"/>
      <path d="M15 37 h5" stroke="#2D723B" fill="none"/>
    </g>

    <g transform="translate(210, 0)" id="R">
      <rect x="0" y="10" width="15" height="15" fill="#3FB950" />
      <rect x="0" y="30" width="15" height="15" fill="#3FB950" />
      <rect x="0" y="50" width="15" height="15" fill="#3FB950" />
      <rect x="20" y="10" width="15" height="15" fill="#3FB950" />
      <rect x="40" y="10" width="15" height="15" fill="#3FB950" />
      <rect x="40" y="30" width="15" height="15" fill="#3FB950" />
      <rect x="20" y="30" width="15" height="15" fill="#3FB950" />
      <rect x="40" y="50" width="15" height="15" fill="#3FB950" />
      <path d="M7 25 v5" stroke="#2D723B" fill="none"/>
      <path d="M7 45 v5" stroke="#2D723B" fill="none"/>
      <path d="M15 17 h5" stroke="#2D723B" fill="none"/>
      <path d="M35 17 h5" stroke="#2D723B" fill="none"/>
      <path d="M15 37 h5" stroke="#2D723B" fill="none"/>
      <path d="M35 37 h5" stroke="#2D723B" fill="none"/>
      <path d="M47 45 v5" stroke="#2D723B" fill="none"/>
    </g>

    <g transform="translate(280, 0)" id="O">
      <rect x="0" y="10" width="15" height="15" fill="#3FB950" />
      <rect x="0" y="30" width="15" height="15" fill="#3FB950" />
      <rect x="0" y="50" width="15" height="15" fill="#3FB950" />
      <rect x="20" y="10" width="15" height="15" fill="#3FB950" />
      <rect x="40" y="10" width="15" height="15" fill="#3FB950" />
      <rect x="40" y="30" width="15" height="15" fill="#3FB950" />
      <rect x="20" y="50" width="15" height="15" fill="#3FB950" />
      <rect x="40" y="50" width="15" height="15" fill="#3FB950" />
      <path d="M7 25 v5" stroke="#2D723B" fill="none"/>
      <path d="M7 45 v5" stroke="#2D723B" fill="none"/>
      <path d="M15 17 h5" stroke="#2D723B" fill="none"/>
      <path d="M35 17 h5" stroke="#2D723B" fill="none"/>
      <path d="M47 25 v5" stroke="#2D723B" fill="none"/>
      <path d="M47 45 v5" stroke="#2D723B" fill="none"/>
      <path d="M15 57 h5" stroke="#2D723B" fill="none"/>
      <path d="M35 57 h5" stroke="#2D723B" fill="none"/>
    </g>
  </g>

  <g transform="translate(40, 160)">
    <path d="M0 10 H10 V25" stroke="#58A6FF" fill="none"/>
    <text x="15" y="14" font-family="monospace" font-size="14">
      <tspan fill="#58A6FF">[</tspan><tspan fill="#3FB950">nefro</tspan><tspan fill="#8B949E">@</tspan><tspan fill="#3FB950">AI-ML</tspan><tspan fill="#58A6FF">]</tspan><tspan fill="#8B949E">—[</tspan><tspan fill="#D29922">~</tspan><tspan fill="#8B949E">]</tspan>
    </text>
    <text x="25" y="35" font-family="monospace" font-size="14" fill="#C9D1D9"><tspan fill="#58A6FF">$</tspan> whoami</text>
    
    <g transform="translate(25, 60)">
      <text y="0" font-family="monospace" font-size="18" font-weight="bold" fill="#BC8CFF">Robin K Philip</text>
      <line x1="160" y1="-12" x2="160" y2="5" stroke="#30363D" />
      <text x="175" y="0" font-family="monospace" font-size="14" fill="#8B949E">AI/ML Engineer @ Starxtechnology</text>
      <text y="30" font-family="monospace" font-size="13" fill="#8B949E">
        <tspan x="0" dy="0">Specializing in Generative AI, LLM Fine-tuning &amp; Agentic Systems</tspan>
        <tspan x="0" dy="20">Location: Kerala, India</tspan>
      </text>
    </g>
  </g>

  <g transform="translate(40, 340)">
    <path d="M0 10 H10 V25" stroke="#58A6FF" fill="none"/>
    <text x="15" y="14" font-family="monospace" font-size="14">
      <tspan fill="#58A6FF">[</tspan><tspan fill="#3FB950">nefro</tspan><tspan fill="#8B949E">@</tspan><tspan fill="#3FB950">AI-ML</tspan><tspan fill="#58A6FF">]</tspan><tspan fill="#8B949E">—[</tspan><tspan fill="#D29922">~/skills</tspan><tspan fill="#8B949E">]</tspan>
    </text>
    <text x="25" y="35" font-family="monospace" font-size="14" fill="#C9D1D9"><tspan fill="#58A6FF">$</tspan> cat skills.json</text>

    <g transform="translate(25, 60)" font-family="monospace" font-size="13">
      <text y="0" fill="#FF7B72">CORE_AI</text>
      <text x="100" y="0" fill="#79C0FF">[LangChain] [CrewAI] [LangGraph] [LLaMA-3.1]</text>
      
      <text y="25" fill="#FF7B72">ML_LIB</text>
      <text x="100" y="25" fill="#79C0FF">[PyTorch] [TensorFlow] [Scikit-learn] [XGBoost]</text>
      
      <text y="50" fill="#FF7B72">MLOPS</text>
      <text x="100" y="50" fill="#79C0FF">[MLflow] [DVC] [Docker] [Kubernetes] [CI/CD]</text>

      <text y="75" fill="#FF7B72">CLOUD</text>
      <text x="100" y="75" fill="#79C0FF">[AWS S3/SageMaker/Bedrock] [GCP Vertex AI]</text>
    </g>
  </g>

  <g transform="translate(40, 560)">
    <path d="M0 10 H10 V25" stroke="#58A6FF" fill="none"/>
    <text x="15" y="14" font-family="monospace" font-size="14">
      <tspan fill="#58A6FF">[</tspan><tspan fill="#3FB950">nefro</tspan><tspan fill="#8B949E">@</tspan><tspan fill="#3FB950">AI-ML</tspan><tspan fill="#58A6FF">]</tspan><tspan fill="#8B949E">—[</tspan><tspan fill="#D29922">~/projects</tspan><tspan fill="#8B949E">]</tspan>
    </text>
    <text x="25" y="35" font-family="monospace" font-size="14" fill="#C9D1D9"><tspan fill="#58A6FF">$</tspan> ls -lh ./top_projects</text>

    <g transform="translate(25, 70)">
      <text y="0" font-family="monospace" font-size="14" font-weight="bold" fill="#3FB950">1. JobFit.AI</text>
      <text y="20" font-family="monospace" font-size="12" fill="#8B949E">Agentic RAG system for resume analysis &amp; interview prep.</text>
      <text y="35" font-family="monospace" font-size="11" fill="#58A6FF">Stack: Gemini 2.0 Flash, LLaMA-3.1, CrewAI.</text>

      <text y="70" font-family="monospace" font-size="14" font-weight="bold" fill="#3FB950">2. AskMee</text>
      <text y="90" font-family="monospace" font-size="12" fill="#8B949E">Customer support chatbot fine-tuned via LoRA/PEFT.</text>
      <text y="105" font-family="monospace" font-size="11" fill="#58A6FF">Achieved 74% accuracy &amp; 27.2 BLEU score.</text>
    </g>
  </g>

  <g transform="translate(40, 800)">
    <rect width="520" height="110" stroke="#30363D" fill="none" stroke-dasharray="2 2" rx="4"/>
    <text x="20" y="35" font-family="monospace" font-size="12" fill="#8B949E">
      <tspan x="20" dy="0">📧 mail     · robinkphilip2001@gmail.com</tspan>
      <tspan x="20" dy="25">🌐 linkedin · linkedin.com/in/robinkphilip</tspan>
      <tspan x="20" dy="25">🛠️ github   · github.com/nefro313</tspan>
    </text>
  </g>

  <text x="400" y="1150" font-family="monospace" font-size="11" fill="#484F58" text-anchor="middle" letter-spacing="2">
    [ FINE-TUNING THE FUTURE · ONE EPOCH AT A TIME ]
  </text>
</svg>
